<svg width="88" height="83" viewBox="0 0 88 83" fill="none" xmlns="http://www.w3.org/2000/svg">
<g id="Group 13733879">
<path id="Rectangle 152" d="M33.0625 33.0156H55.5925V38.2806C55.5925 39.9375 54.2493 41.2806 52.5925 41.2806H36.0625C34.4056 41.2806 33.0625 39.9375 33.0625 38.2806V33.0156Z" stroke="#53596D" stroke-width="6"/>
<path id="Vector 16" d="M2.34766 31.0357L11.7218 9.23064L12.7407 5.5625H75.9142L84.2694 24.5145L86.511 31.0357H2.34766Z" fill="#FAFAFD" stroke="#53596D" stroke-width="2" stroke-linecap="round"/>
<g id="Rectangle 153 (Stroke)">
<mask id="path-3-inside-1_6340_86518" fill="white">
<path fill-rule="evenodd" clip-rule="evenodd" d="M75.2274 6.78527H13.8439L3.65014 30.0168H85.4211L75.2274 6.78527ZM76.8248 4.33984H12.2464L1.12444 30.0168L1.12109 32.4438L87.5293 32.4622V30.0168L76.8248 4.33984Z"/>
</mask>
<path fill-rule="evenodd" clip-rule="evenodd" d="M75.2274 6.78527H13.8439L3.65014 30.0168H85.4211L75.2274 6.78527ZM76.8248 4.33984H12.2464L1.12444 30.0168L1.12109 32.4438L87.5293 32.4622V30.0168L76.8248 4.33984Z" fill="black"/>
<path d="M13.8439 6.78527V0.785268H9.92443L8.34956 4.37441L13.8439 6.78527ZM75.2274 6.78527L80.7217 4.37441L79.1468 0.785268H75.2274V6.78527ZM3.65014 30.0168L-1.8442 27.6059L-5.5348 36.0168H3.65014V30.0168ZM85.4211 30.0168V36.0168H94.6061L90.9155 27.6059L85.4211 30.0168ZM76.8248 4.33984L82.3628 2.0311L80.824 -1.66016H76.8248V4.33984ZM12.2464 4.33984V-1.66016H8.30666L6.74074 1.95504L12.2464 4.33984ZM1.12109 32.4438L-4.8789 32.4356L-4.88718 38.4425L1.11982 38.4438L1.12109 32.4438ZM87.5293 32.4622L87.528 38.4622L93.5293 38.4635V32.4622H87.5293ZM1.12444 30.0168L-4.38126 27.632L-4.87385 28.7692L-4.87556 30.0085L1.12444 30.0168ZM87.5293 30.0168H93.5293V28.8162L93.0673 27.7081L87.5293 30.0168ZM13.8439 12.7853H75.2274V0.785268H13.8439V12.7853ZM9.14447 32.4277L19.3382 9.19613L8.34956 4.37441L-1.8442 27.6059L9.14447 32.4277ZM85.4211 24.0168H3.65014V36.0168H85.4211V24.0168ZM69.733 9.19613L79.9268 32.4277L90.9155 27.6059L80.7217 4.37441L69.733 9.19613ZM76.8248 -1.66016H12.2464V10.3398H76.8248V-1.66016ZM1.11982 38.4438L87.528 38.4622L87.5306 26.4622L1.12237 26.4438L1.11982 38.4438ZM6.74074 1.95504L-4.38126 27.632L6.63014 32.4016L17.7521 6.72464L6.74074 1.95504ZM-4.87556 30.0085L-4.8789 32.4356L7.12109 32.4521L7.12443 30.0251L-4.87556 30.0085ZM93.5293 32.4622V30.0168H81.5293V32.4622H93.5293ZM93.0673 27.7081L82.3628 2.0311L71.2868 6.64859L81.9913 32.3255L93.0673 27.7081Z" fill="#EAEAF3" mask="url(#path-3-inside-1_6340_86518)"/>
</g>
<path id="Vector 13 (Stroke)" fill-rule="evenodd" clip-rule="evenodd" d="M11.7227 31.647V5.5625H14.1681V31.647H11.7227ZM74.8961 31.647V5.5625H77.3415V31.647H74.8961Z" fill="#EAEAF3"/>
<g id="Flex">
<g id="Form">
<path id="Vector 15" d="M29.3684 26.7496L30.2499 26.1659L30.32 48.1668L61.9036 48.1668L61.9036 34.7589C61.9036 31.2193 67.7985 27.3688 68.8321 23.9787L69.9712 20.2423C70.493 18.5309 70.1762 16.5925 68.5224 15.8497C65.8261 14.6387 61.6596 13.8655 56.5288 7.97376C50.8955 1.50512 38.1113 2.52935 33.3778 7.72321C29.447 12.0362 25.8473 12.2695 21.3907 16.1229C19.5457 17.718 19.3421 20.3972 20.5475 22.5012L21.9993 25.0352C23.475 27.6108 26.8737 28.4015 29.3684 26.7496Z" fill="white"/>
<path id="Union" fill-rule="evenodd" clip-rule="evenodd" d="M56.2922 8.6871C54.2885 6.48857 49.4679 5.01219 45.2225 4.92079L45.2225 2.02845C49.9609 2.13047 55.7556 3.76267 58.4855 6.75799C60.2908 8.73888 62.0086 9.78307 63.9081 10.8351C64.1111 10.9476 64.317 11.0605 64.5257 11.1749L64.5261 11.1751L64.5261 11.1751C66.2808 12.1372 68.2331 13.2077 70.3485 15.0367C72.8162 17.1704 72.9777 20.6339 71.5019 23.2098L70.05 25.7438C68.4184 28.5917 64.9579 29.7423 61.9807 28.6576L61.914 49.6122L45.3955 49.6122L45.3955 46.7201L58.9792 46.7201L59.0534 23.4525L62.2209 25.5498C64.0028 26.7298 66.4305 26.165 67.4845 24.3253L68.9364 21.7913C69.8715 20.1591 69.6255 18.2643 68.4035 17.2077C66.535 15.5922 64.8458 14.6644 63.089 13.6996L63.0883 13.6992L63.088 13.699C62.8805 13.5851 62.6721 13.4706 62.4623 13.3544C60.4651 12.2482 58.4176 11.0192 56.2922 8.6871ZM33.9218 8.79343C35.9255 6.5949 40.9765 5.01488 45.2219 4.92347L45.2219 2.0314C40.4836 2.13342 34.4583 3.86899 31.7285 6.86432C29.9232 8.84521 28.2054 9.8894 26.3059 10.9414C26.103 11.0538 25.8973 11.1666 25.6888 11.2809L25.6879 11.2814L25.6879 11.2814C23.9332 12.2435 21.9809 13.314 19.8655 15.143C17.3978 17.2767 17.2363 20.7402 18.7121 23.3161L20.1639 25.8501C21.7956 28.6981 25.2561 29.8486 28.2332 28.7639L28.3 49.7185L44.8185 49.7185L44.8185 46.8264L31.2347 46.8265L31.1606 23.5588L27.9931 25.6562C26.2111 26.8361 23.7835 26.2713 22.7294 24.4316L21.2776 21.8976C20.3425 20.2655 20.5884 18.3706 21.8105 17.314C23.679 15.6985 25.3682 14.7707 27.1249 13.8059L27.1251 13.8058C27.3329 13.6917 27.5416 13.5771 27.7517 13.4607C29.7489 12.3545 31.7964 11.1256 33.9218 8.79343Z" fill="#53596D"/>
</g>
<g id="Icon">
<g id="Face">
<path id="Ellipse 27" d="M39.6289 14.0459C39.7452 14.2473 39.7433 14.647 39.3529 15.2382C38.981 15.8015 38.329 16.4103 37.474 16.9039C36.7053 17.3477 36.1305 17.2807 35.6963 17.0616C35.2262 16.8245 34.8571 16.3739 34.6195 15.9625C34.4969 15.75 34.4686 15.6476 34.4649 15.6005C34.4649 15.5997 34.4648 15.5988 34.4646 15.5979C34.4633 15.587 34.4608 15.5667 34.5122 15.5054C34.5857 15.4179 34.7294 15.2988 35.0022 15.1223C35.269 14.9498 35.6186 14.7474 36.0764 14.4831C36.9313 13.9895 37.7845 13.7292 38.4583 13.6887C39.1655 13.6463 39.5126 13.8445 39.6289 14.0459Z" fill="#53596D" stroke="#53596D"/>
<path id="Ellipse 28" d="M50.9179 14.0459C50.8016 14.2473 50.8036 14.647 51.1939 15.2382C51.5659 15.8015 52.2179 16.4103 53.0729 16.9039C53.8416 17.3477 54.4164 17.2807 54.8506 17.0616C55.3207 16.8245 55.6898 16.3739 55.9273 15.9625C56.05 15.75 56.0783 15.6476 56.0819 15.6005C56.082 15.5997 56.0821 15.5988 56.0822 15.5979C56.0836 15.587 56.0861 15.5667 56.0347 15.5054C55.9612 15.4179 55.8175 15.2988 55.5447 15.1223C55.2779 14.9498 54.9282 14.7474 54.4705 14.4831C53.6155 13.9895 52.7623 13.7292 52.0886 13.6887C51.3814 13.6463 51.0342 13.8445 50.9179 14.0459Z" fill="#53596D" stroke="#53596D"/>
<g id="nose">
<mask id="path-10-outside-2_6340_86518" maskUnits="userSpaceOnUse" x="33.5202" y="19.5193" width="23.0619" height="15.0951" fill="black">
<rect fill="white" x="33.5202" y="19.5193" width="23.0619" height="15.0951"/>
<path fill-rule="evenodd" clip-rule="evenodd" d="M44.2291 26.9367C44.2291 26.9425 44.2298 26.9481 44.2313 26.9535C44.1753 27.6138 44.164 28.2489 44.1612 28.5541C44.1513 28.6004 44.146 28.6481 44.1458 28.6969C44.1383 30.5032 42.4057 31.949 40.2612 31.9401C38.1298 31.9313 36.4464 30.4824 36.4539 28.6651C36.4558 28.218 36.0296 27.8538 35.5021 27.8516C34.9745 27.8494 34.5454 28.2101 34.5435 28.6571C34.5323 31.3575 37.055 33.5459 40.2545 33.5591C42.2679 33.5675 44.0486 32.7098 45.0898 31.3932C46.1032 32.7158 47.8525 33.5901 49.8714 33.5985C53.0579 33.6117 55.6618 31.4556 55.6731 28.7442C55.6749 28.2971 55.2488 27.9329 54.7212 27.9308C54.1937 27.9286 53.7645 28.2892 53.7627 28.7363C53.7552 30.5426 52.0225 31.9884 49.8781 31.9795C47.7467 31.9707 46.0633 30.5218 46.0708 28.7044C46.0711 28.6198 46.0838 28.4341 46.1007 28.1884C46.1228 27.8653 46.152 27.4385 46.1695 27.0021C46.1913 26.9922 46.2065 26.9703 46.2066 26.9447C46.2098 26.1771 46.5126 25.4411 47.0505 24.8935L49.9337 21.9584C50.4345 21.4487 50.0754 20.5876 49.3608 20.5847L45.2649 20.5679L45.2649 20.5678L41.102 20.5504C40.3873 20.5474 40.0221 21.4067 40.5203 21.9192L43.3994 24.8807C43.9344 25.431 44.2323 26.1692 44.2291 26.9367Z"/>
</mask>
<path fill-rule="evenodd" clip-rule="evenodd" d="M44.2291 26.9367C44.2291 26.9425 44.2298 26.9481 44.2313 26.9535C44.1753 27.6138 44.164 28.2489 44.1612 28.5541C44.1513 28.6004 44.146 28.6481 44.1458 28.6969C44.1383 30.5032 42.4057 31.949 40.2612 31.9401C38.1298 31.9313 36.4464 30.4824 36.4539 28.6651C36.4558 28.218 36.0296 27.8538 35.5021 27.8516C34.9745 27.8494 34.5454 28.2101 34.5435 28.6571C34.5323 31.3575 37.055 33.5459 40.2545 33.5591C42.2679 33.5675 44.0486 32.7098 45.0898 31.3932C46.1032 32.7158 47.8525 33.5901 49.8714 33.5985C53.0579 33.6117 55.6618 31.4556 55.6731 28.7442C55.6749 28.2971 55.2488 27.9329 54.7212 27.9308C54.1937 27.9286 53.7645 28.2892 53.7627 28.7363C53.7552 30.5426 52.0225 31.9884 49.8781 31.9795C47.7467 31.9707 46.0633 30.5218 46.0708 28.7044C46.0711 28.6198 46.0838 28.4341 46.1007 28.1884C46.1228 27.8653 46.152 27.4385 46.1695 27.0021C46.1913 26.9922 46.2065 26.9703 46.2066 26.9447C46.2098 26.1771 46.5126 25.4411 47.0505 24.8935L49.9337 21.9584C50.4345 21.4487 50.0754 20.5876 49.3608 20.5847L45.2649 20.5679L45.2649 20.5678L41.102 20.5504C40.3873 20.5474 40.0221 21.4067 40.5203 21.9192L43.3994 24.8807C43.9344 25.431 44.2323 26.1692 44.2291 26.9367Z" fill="#53596D"/>
<path d="M44.2313 26.9535L44.7295 26.9957L44.7369 26.9079L44.7139 26.8228L44.2313 26.9535ZM44.1612 28.5541L44.6501 28.6589L44.6608 28.6093L44.6612 28.5585L44.1612 28.5541ZM45.0898 31.3932L45.4867 31.0891L45.096 30.5793L44.6976 31.0831L45.0898 31.3932ZM46.1007 28.1884L46.5995 28.2226L46.1007 28.1884ZM46.1695 27.0021L45.9624 26.547L45.6822 26.6745L45.6699 26.9821L46.1695 27.0021ZM47.0505 24.8935L46.6938 24.5431L47.0505 24.8935ZM49.9337 21.9584L50.2904 22.3088L50.2904 22.3088L49.9337 21.9584ZM49.3608 20.5847L49.3629 20.0847L49.3608 20.5847ZM45.2649 20.5679L44.7649 20.5658L44.7629 21.0659L45.2629 21.0679L45.2649 20.5679ZM45.2649 20.5678L45.7649 20.5698L45.767 20.0699L45.267 20.0678L45.2649 20.5678ZM41.102 20.5504L41.1041 20.0504L41.102 20.5504ZM40.5203 21.9192L40.8788 21.5707L40.8788 21.5707L40.5203 21.9192ZM43.3994 24.8807L43.7579 24.5321L43.7579 24.5321L43.3994 24.8807ZM44.7139 26.8228C44.7241 26.8603 44.7293 26.8993 44.7291 26.9387L43.7291 26.9346C43.7289 26.9857 43.7356 27.036 43.7487 27.0841L44.7139 26.8228ZM44.6612 28.5585C44.6639 28.2581 44.6751 27.6376 44.7295 26.9957L43.7331 26.9112C43.6756 27.5901 43.664 28.2396 43.6613 28.5496L44.6612 28.5585ZM44.6458 28.699C44.6459 28.6852 44.6474 28.6719 44.6501 28.6589L43.6724 28.4492C43.6553 28.529 43.6462 28.6111 43.6458 28.6948L44.6458 28.699ZM40.2592 32.4401C42.5956 32.4498 44.6369 30.8586 44.6458 28.699L43.6458 28.6948C43.6398 30.1478 42.2158 31.4482 40.2633 31.4401L40.2592 32.4401ZM35.9539 28.663C35.945 30.828 37.929 32.4305 40.2592 32.4401L40.2633 31.4401C38.3306 31.4321 36.9478 30.1368 36.9539 28.6671L35.9539 28.663ZM35.5 28.3516C35.8322 28.353 35.9543 28.5664 35.9539 28.663L36.9539 28.6671C36.9572 27.8695 36.227 27.3546 35.5041 27.3516L35.5 28.3516ZM35.0435 28.6592C35.0439 28.5627 35.1678 28.3502 35.5 28.3516L35.5041 27.3516C34.7812 27.3486 34.0468 27.8575 34.0435 28.6551L35.0435 28.6592ZM40.2566 33.0591C37.2562 33.0467 35.0338 31.0123 35.0435 28.6592L34.0435 28.6551C34.0309 31.7027 36.8537 34.045 40.2525 34.0591L40.2566 33.0591ZM44.6976 31.0831C43.7608 32.2677 42.1315 33.0669 40.2566 33.0591L40.2525 34.0591C42.4042 34.068 44.3365 33.1519 45.482 31.7034L44.6976 31.0831ZM49.8735 33.0985C47.9943 33.0907 46.3971 32.2773 45.4867 31.0891L44.6929 31.6974C45.8093 33.1543 47.7107 34.0895 49.8693 34.0985L49.8735 33.0985ZM55.1731 28.7421C55.1633 31.0998 52.8684 33.1109 49.8735 33.0985L49.8693 34.0985C53.2474 34.1125 56.1604 31.8115 56.1731 28.7463L55.1731 28.7421ZM54.7191 28.4308C55.0513 28.4321 55.1735 28.6456 55.1731 28.7421L56.1731 28.7463C56.1764 27.9487 55.4462 27.4338 54.7233 27.4308L54.7191 28.4308ZM54.2627 28.7384C54.2631 28.6418 54.387 28.4294 54.7191 28.4308L54.7233 27.4308C54.0004 27.4278 53.266 27.9366 53.2627 28.7342L54.2627 28.7384ZM49.876 32.4795C52.2125 32.4892 54.2537 30.898 54.2627 28.7384L53.2627 28.7342C53.2567 30.1872 51.8326 31.4876 49.8802 31.4795L49.876 32.4795ZM45.5708 28.7024C45.5618 30.8674 47.5459 32.4699 49.876 32.4795L49.8802 31.4795C47.9475 31.4715 46.5647 30.1762 46.5708 28.7065L45.5708 28.7024ZM45.6018 28.1543C45.5858 28.3882 45.5712 28.597 45.5708 28.7024L46.5708 28.7065C46.571 28.6427 46.5819 28.4799 46.5995 28.2226L45.6018 28.1543ZM45.6699 26.9821C45.6527 27.4104 45.624 27.8305 45.6018 28.1543L46.5995 28.2226C46.6216 27.9 46.6513 27.4665 46.6691 27.0222L45.6699 26.9821ZM46.3765 27.4572C46.5695 27.3695 46.7057 27.1748 46.7066 26.9468L45.7066 26.9427C45.7073 26.7658 45.8131 26.615 45.9624 26.547L46.3765 27.4572ZM46.7066 26.9468C46.7092 26.3096 46.9606 25.6985 47.4072 25.2439L46.6938 24.5431C46.0646 25.1837 45.7103 26.0447 45.7066 26.9427L46.7066 26.9468ZM47.4072 25.2439L50.2904 22.3088L49.577 21.608L46.6938 24.5431L47.4072 25.2439ZM50.2904 22.3088C51.1011 21.4835 50.5197 20.0894 49.3629 20.0847L49.3588 21.0847C49.631 21.0858 49.7678 21.4138 49.577 21.608L50.2904 22.3088ZM49.3629 20.0847L45.267 20.0679L45.2629 21.0679L49.3588 21.0847L49.3629 20.0847ZM44.7649 20.5657L44.7649 20.5658L45.7649 20.57L45.7649 20.5698L44.7649 20.5657ZM41.0999 21.0503L45.2628 21.0678L45.267 20.0678L41.1041 20.0504L41.0999 21.0503ZM40.8788 21.5707C40.6894 21.3759 40.8282 21.0492 41.0999 21.0503L41.1041 20.0504C39.9463 20.0455 39.3547 21.4376 40.1618 22.2677L40.8788 21.5707ZM43.7579 24.5321L40.8788 21.5707L40.1618 22.2677L43.0409 25.2292L43.7579 24.5321ZM44.7291 26.9387C44.7328 26.0403 44.3841 25.1763 43.7579 24.5321L43.0409 25.2292C43.4846 25.6857 43.7317 26.298 43.7291 26.9346L44.7291 26.9387Z" fill="#53596D" mask="url(#path-10-outside-2_6340_86518)"/>
</g>
</g>
</g>
</g>
<path id="Rectangle 151" d="M1.125 30.0156H87.53V74.4408C87.53 79.1678 83.698 82.9998 78.971 82.9998H9.68399C4.95699 82.9998 1.125 79.1678 1.125 74.4408V30.0156Z" fill="white"/>
<path id="Rectangle 151 (Stroke)" fill-rule="evenodd" clip-rule="evenodd" d="M85.0846 32.461H3.57042V74.4408C3.57042 77.8173 6.30756 80.5544 9.68399 80.5544H78.971C82.3474 80.5544 85.0846 77.8173 85.0846 74.4408V32.461ZM1.125 30.0156V74.4408C1.125 79.1678 4.95699 82.9998 9.68399 82.9998H78.971C83.698 82.9998 87.53 79.1678 87.53 74.4408V30.0156H1.125Z" fill="#EAEAF3"/>
</g>
</svg>
