<svg width="78" height="87" viewBox="0 0 78 87" fill="none" xmlns="http://www.w3.org/2000/svg">
<path d="M77.4167 23.4581C77.2601 22.8939 77.0451 22.3477 76.7751 21.8285C75.5755 19.5484 74.055 18.5762 71.2373 16.9326L49.2189 3.94465C45.4248 1.71355 42.2654 0 39.0571 0H38.9176C35.5698 0.0489585 32.2151 2.0073 29.244 3.72784L8.90641 15.5338C5.20994 17.681 1.79244 19.8631 0.627703 22.9755C0 24.6751 0 26.7943 0 28.8505V57.2814C0 60.0441 0 63.1774 1.26936 65.4015C2.53871 67.6256 5.3006 69.2413 7.7068 70.6401L30.5134 83.8728C32.9544 85.2717 35.4862 86.7544 38.0179 86.9712C41.3377 87.251 44.7622 85.4535 48.5703 83.2434L69.1101 71.3535C72.7926 69.2203 76.1892 67.0521 77.347 63.9607C77.9747 62.2752 77.9747 60.17 77.9747 58.1347V29.8367C78.0728 27.6951 77.8852 25.5499 77.4167 23.4581ZM77.0959 57.0926C77.0959 59.1488 77.0959 61.9325 75.701 64.4014C74.2503 66.9892 71.7395 68.4439 69.9052 69.507L46.2826 83.1804C44.6785 84.1106 42.4746 85.3836 39.9428 85.6563C39.6138 85.6901 39.2832 85.7064 38.9525 85.7053H38.806C35.9674 85.6633 33.5612 84.2645 31.8315 83.2434L8.13224 69.535C6.17939 68.402 3.48724 66.8563 2.09234 64.0237C0.906682 61.7086 0.913657 59.2677 0.913657 57.3094L0.927606 28.8855C0.927606 27.1719 0.927606 24.8219 2.06445 22.6678C3.3896 20.1499 5.74697 18.7791 7.47664 17.7719L31.5735 3.78379C33.352 2.74867 35.7582 1.33587 38.6386 1.25194C41.8469 1.14003 44.5809 2.72069 46.5756 3.87471L65.1905 14.6316C65.8461 15.0093 66.6272 15.4009 67.4572 15.8136C69.7657 16.9676 72.3881 18.2825 74.2015 20.2898C76.7542 23.0874 77.0959 26.8152 77.0959 30.0815V57.0926Z" fill="url(#paint0_linear_4235_96510)"/>
<path d="M35.8621 22.4345C31.667 23.2844 27.0685 27.3794 24.9709 32.1699C24.0835 34.1015 19.4187 39.7863 18.0473 41.177C15.3043 44.1904 15.3043 45.4266 18.1279 46.0447C22.607 47.1172 26.1146 43.7742 24.6696 52.4839C23.2247 61.1935 24.551 67 24.6696 67C32.5975 67 47.8375 56.5037 51.2711 50.0954C52.3199 48.1637 53.2073 52.0975 54.9822 52.4839C56.9991 53.0247 58.3873 52.1304 57.9033 49.5806C57.5806 48.1126 55.3049 41.0554 54.9822 38.042C53.6914 26.2977 46.3499 20.2711 35.8621 22.4345ZM36.5882 33.2516C35.2974 35.5695 32.2461 35.6468 32.0041 34.1015C31.8428 33.1743 32.4075 31.2427 33.2142 29.8519C34.5051 27.534 37.5563 27.4567 37.7983 29.002C37.9597 29.9292 37.3949 31.8608 36.5882 33.2516ZM49.2336 32.1613C50.6786 36.5161 46.0283 38.216 44.8988 36.5161C43.85 34.9708 43.7755 31.2793 44.8988 29.8519C46.0221 28.4246 47.7887 27.8065 49.2336 32.1613ZM41.1867 40.2054C41.1867 43.2188 36.4712 49.5362 36.2292 46.6774C35.9065 43.6641 37.2336 38.5056 39.7345 38.5056C40.7026 38.5056 41.1867 39.0465 41.1867 40.2054Z" fill="black"/>
<defs>
<linearGradient id="paint0_linear_4235_96510" x1="5.20229" y1="12.8523" x2="78.106" y2="71.8965" gradientUnits="userSpaceOnUse">
<stop stop-color="#151515" stop-opacity="0.53"/>
<stop offset="1" stop-color="#151515" stop-opacity="0.08"/>
</linearGradient>
</defs>
</svg>
