<svg width="198" height="218" viewBox="0 0 198 218" fill="none" xmlns="http://www.w3.org/2000/svg">
<path d="M196.02 57.8111L195.436 56.6955C193.167 51.6512 189.504 47.3586 184.878 44.3218C181.477 42.0905 136.653 16.4305 117.389 5.70504C114.749 4.15834 112.719 3.04269 111.678 2.53557L111.069 2.23131L109.495 1.62277L107.363 0.887451C105.58 0.401254 103.751 0.1038 101.906 0L96.0684 0C94.1701 0.108209 92.2893 0.422787 90.4592 0.938163L89.114 1.36921C88.3971 1.61938 87.6939 1.90715 87.0073 2.23131L86.5504 2.53557H86.2966C85.1798 3.11876 83.1747 4.23441 80.5097 5.70504C61.1183 16.4812 16.3964 42.1159 13.2237 44.2965C8.55486 47.298 4.84624 51.5749 2.53814 56.6194L1.97975 57.8111C0 61.8173 0 61.8934 0 101.803V116.636C0 133.143 0 143.184 0.203051 149.345C0.00405969 153.446 0.87889 157.527 2.74119 161.186C5.03506 166.223 8.70329 170.511 13.3252 173.56C17.6147 176.501 82.4133 213.495 87.0073 215.524C89.8705 216.741 92.8984 217.527 95.9923 217.857C101.181 218.352 106.412 217.559 111.221 215.549C115.612 213.445 180.385 176.476 184.827 173.535C189.455 170.529 193.134 166.274 195.436 161.263L196.909 158.169C197.593 155.521 197.901 152.789 197.822 150.055V149.244C198 143.108 198 133.067 198 116.459V101.753C197.975 61.8934 197.975 61.8173 196.02 57.8111ZM194.244 151.627C193.366 157.528 190.607 162.987 186.375 167.196C184.04 169.452 178.913 172.647 147.161 190.802C145.714 191.613 111.45 211.315 108.175 212.532C105.964 213.374 103.635 213.87 101.272 214.003H96.8299C94.5035 213.825 92.2137 213.321 90.0277 212.507C86.855 211.289 52.5648 191.613 51.0927 190.802C18.503 172.419 14.0613 169.351 11.8785 167.348C7.5967 163.132 4.80003 157.643 3.90873 151.703C3.50263 148.813 3.42648 107.584 3.4011 94.3487V90.6468C3.4011 68.7394 3.70568 67.2181 3.8072 66.2799C4.67737 60.3722 7.44803 54.9076 11.7008 50.7115C13.8075 48.6323 18.4269 45.6403 50.8896 27.1053C67.819 17.4701 82.2356 9.35627 87.3373 6.59249L88.4287 6.08538C88.7858 5.87792 89.1593 5.69984 89.5454 5.55291C91.8647 4.63415 94.3145 4.08651 96.8045 3.93014C98.6955 3.75305 100.599 3.75305 102.49 3.93014C104.508 4.13811 106.488 4.61568 108.378 5.35006H108.581C108.967 5.46764 109.334 5.63832 109.673 5.85718L110.18 6.08538C114.749 8.49418 130.029 17.1151 147.237 26.9532C179.903 45.6403 184.269 48.4548 186.426 50.5087C190.683 54.7156 193.461 60.1865 194.345 66.1024C194.472 66.9645 194.726 68.638 194.802 90.444C194.802 106.874 194.802 147.545 194.244 151.577V151.627Z" fill="url(#paint0_radial_4348_97261)"/>
<path d="M148.115 85.8211C146.594 82.8814 137.692 68.987 135.287 62.7192C125.998 38.1475 106.645 29.3283 85.2473 39.867C76.6493 44.027 69.0466 55.3976 67.1943 66.8515C66.3649 71.483 58.1264 87.6238 55.97 91.3955C51.7401 99.3827 52.4313 102.045 58.9005 101.768C69.1572 101.574 76.0687 89.26 78.0316 110.642C78.5155 116.871 80.377 122.913 83.4806 128.329C86.5843 133.745 90.8522 138.399 95.974 141.953C111.566 137.904 127.187 111.669 132.743 95.1672C134.347 90.3971 137.388 95.5278 145.903 95.1672C150.603 95.195 150.603 90.9518 148.115 85.8211ZM92.8223 62.6638C91.3294 68.3491 84.7773 70.235 83.395 67.0456C82.4738 63.2648 82.4738 59.3171 83.395 55.5363C84.8602 49.8232 91.6888 49.6846 93.0435 52.763C93.8795 56.0207 93.803 59.4468 92.8223 62.6638ZM102.36 87.4296C100.231 88.1784 98.241 86.2926 97.0798 84.6563C95.817 82.9421 95.1647 80.852 95.2275 78.7214C95.2275 75.5598 97.5498 75.948 101.973 75.3656C106.397 74.7832 107.502 75.8648 107.502 76.1144C108.221 80.2744 106.645 85.8211 102.443 87.4296H102.36ZM109.382 65.243C107.005 61.8318 106.894 51.2376 110.737 50.2947C115.243 49.1854 117.234 50.8494 117.897 58.8088C118.837 69.1811 111.981 69.1811 109.41 65.3539L109.382 65.243Z" fill="black"/>
<path d="M93.9108 189.431L41.0415 162.098C39.7942 161.46 38.7475 160.49 38.0166 159.295C37.2857 158.101 36.8989 156.728 36.8989 155.328C36.8989 153.928 37.2857 152.555 38.0166 151.361C38.7475 150.166 39.7942 149.196 41.0415 148.558L51.524 143.487C52.301 143.095 53.1839 142.965 54.041 143.116C54.8981 143.266 55.6835 143.69 56.28 144.323C56.8766 144.956 57.2523 145.764 57.3512 146.628C57.4501 147.492 57.2668 148.365 56.8287 149.116C56.5705 149.594 56.4109 150.118 56.3594 150.659C56.3079 151.199 56.3655 151.744 56.5288 152.262C56.6922 152.78 56.9578 153.26 57.3102 153.673C57.6625 154.087 58.0943 154.425 58.58 154.669L94.3931 173.559C95.9825 174.4 97.7344 174.89 99.5299 174.995C101.326 175.1 103.123 174.817 104.799 174.167L143.024 157.204C143.594 156.988 144.103 156.635 144.505 156.177C144.907 155.719 145.191 155.17 145.331 154.577C145.471 153.983 145.464 153.365 145.31 152.776C145.155 152.186 144.858 151.643 144.445 151.195C143.857 150.557 143.509 149.734 143.463 148.868C143.417 148.001 143.675 147.146 144.192 146.449C144.709 145.752 145.453 145.258 146.296 145.05C147.139 144.843 148.029 144.935 148.811 145.312L164.04 149.953C165.055 150.438 165.912 151.2 166.512 152.151C167.112 153.102 167.431 154.204 167.431 155.328C167.431 156.452 167.112 157.554 166.512 158.505C165.912 159.456 165.055 160.218 164.04 160.703L105.129 189.584C103.373 190.419 101.448 190.84 99.5024 190.813C97.5571 190.787 95.644 190.314 93.9108 189.431Z" fill="black"/>
<defs>
<radialGradient id="paint0_radial_4348_97261" cx="0" cy="0" r="1" gradientUnits="userSpaceOnUse" gradientTransform="translate(214.493 122.733) rotate(-162.097) scale(223.038 640.452)">
<stop stop-color="#050A15" stop-opacity="0"/>
<stop offset="0.42" stop-color="#050A15" stop-opacity="0.1"/>
<stop offset="1" stop-color="#050A15"/>
</radialGradient>
</defs>
</svg>
