<svg width="160" height="64" viewBox="0 0 160 64" fill="none" xmlns="http://www.w3.org/2000/svg">
<path d="M43.1672 42.9326H21.183V53.8115H43.1672V42.9326Z" fill="#050A15"/>
<path d="M43.1672 10.1882H21.183V21.0671H43.1672V10.1882Z" fill="#050A15"/>
<path d="M21.183 42.9326V21.0671H10.245V42.9326H21.183Z" fill="#050A15"/>
<path d="M54.1052 42.9326V32.0537H43.1672V42.9326H54.1052Z" fill="#050A15"/>
<path fill-rule="evenodd" clip-rule="evenodd" d="M46.6014 0.717489H17.7461C8.34359 0.717489 0.721384 8.29853 0.721384 17.6502V46.3498C0.721384 55.7015 8.34359 63.2825 17.7461 63.2825H46.6014C56.0039 63.2825 63.6261 55.7015 63.6261 46.3498V17.6502C63.6261 8.29853 56.0039 0.717489 46.6014 0.717489ZM17.7461 0C7.94518 0 0 7.90227 0 17.6502V46.3498C0 56.0977 7.94518 64 17.7461 64H46.6014C56.4023 64 64.3475 56.0977 64.3475 46.3498V17.6502C64.3475 7.90228 56.4023 0 46.6014 0H17.7461Z" fill="url(#paint0_radial_298_410)"/>
<path d="M84.1604 20.4193C85.8675 20.4193 87.3581 20.7909 88.6324 21.5342C89.9308 22.2775 90.8925 23.2126 91.5176 24.3395V20.743H94.8356V40.8832C94.8356 42.6814 94.4509 44.2759 93.6815 45.6665C92.9121 47.0811 91.8061 48.184 90.3635 48.9753C88.945 49.7665 87.286 50.1621 85.3866 50.1621C82.7899 50.1621 80.6261 49.5507 78.895 48.3279C77.1639 47.1051 76.142 45.4387 75.8295 43.3288H79.0753C79.4359 44.5276 80.1813 45.4867 81.3113 46.206C82.4413 46.9492 83.7998 47.3209 85.3866 47.3209C87.1898 47.3209 88.6565 46.7574 89.7865 45.6305C90.9406 44.5037 91.5176 42.9212 91.5176 40.8832V36.7473C90.8684 37.8981 89.9067 38.8572 88.6324 39.6244C87.3581 40.3917 85.8675 40.7753 84.1604 40.7753C82.4053 40.7753 80.8064 40.3437 79.3638 39.4806C77.9453 38.6174 76.8273 37.4066 76.0098 35.8482C75.1923 34.2897 74.7836 32.5154 74.7836 30.5254C74.7836 28.5114 75.1923 26.7491 76.0098 25.2386C76.8273 23.7041 77.9453 22.5172 79.3638 21.6781C80.8064 20.8389 82.4053 20.4193 84.1604 20.4193ZM91.5176 30.5613C91.5176 29.0748 91.2171 27.7801 90.616 26.6772C90.0149 25.5742 89.1974 24.7351 88.1636 24.1596C87.1538 23.5602 86.0358 23.2605 84.8096 23.2605C83.5834 23.2605 82.4654 23.5482 81.4556 24.1237C80.4457 24.6991 79.6403 25.5383 79.0392 26.6412C78.4381 27.7441 78.1376 29.0388 78.1376 30.5254C78.1376 32.0359 78.4381 33.3546 79.0392 34.4815C79.6403 35.5844 80.4457 36.4356 81.4556 37.035C82.4654 37.6104 83.5834 37.8981 84.8096 37.8981C86.0358 37.8981 87.1538 37.6104 88.1636 37.035C89.1974 36.4356 90.0149 35.5844 90.616 34.4815C91.2171 33.3546 91.5176 32.0479 91.5176 30.5613Z" fill="#050A15"/>
<path d="M109.001 40.7753C107.15 40.7753 105.467 40.3557 103.952 39.5165C102.461 38.6774 101.283 37.4905 100.418 35.956C99.5762 34.3976 99.1554 32.5993 99.1554 30.5613C99.1554 28.5473 99.5882 26.7731 100.454 25.2386C101.343 23.6801 102.546 22.4933 104.06 21.6781C105.575 20.8389 107.27 20.4193 109.145 20.4193C111.021 20.4193 112.716 20.8389 114.23 21.6781C115.745 22.4933 116.935 23.6681 117.801 25.2026C118.69 26.7371 119.135 28.5233 119.135 30.5613C119.135 32.5993 118.678 34.3976 117.765 35.956C116.875 37.4905 115.661 38.6774 114.122 39.5165C112.584 40.3557 110.876 40.7753 109.001 40.7753ZM109.001 37.8981C110.179 37.8981 111.285 37.6224 112.319 37.0709C113.353 36.5195 114.182 35.6923 114.808 34.5894C115.457 33.4865 115.781 32.1438 115.781 30.5613C115.781 28.9789 115.469 27.6362 114.844 26.5333C114.218 25.4304 113.401 24.6152 112.391 24.0877C111.381 23.5362 110.287 23.2605 109.109 23.2605C107.907 23.2605 106.801 23.5362 105.791 24.0877C104.806 24.6152 104.012 25.4304 103.411 26.5333C102.81 27.6362 102.509 28.9789 102.509 30.5613C102.509 32.1678 102.798 33.5224 103.375 34.6254C103.976 35.7283 104.769 36.5555 105.755 37.1069C106.741 37.6344 107.823 37.8981 109.001 37.8981Z" fill="#050A15"/>
<path d="M130.447 40.7753C128.932 40.7753 127.574 40.5236 126.372 40.0201C125.169 39.4926 124.22 38.7733 123.522 37.8622C122.825 36.9271 122.441 35.8601 122.368 34.6613H125.758C125.855 35.6444 126.311 36.4476 127.129 37.0709C127.97 37.6943 129.064 38.006 130.411 38.006C131.661 38.006 132.647 37.7303 133.368 37.1788C134.089 36.6274 134.45 35.9321 134.45 35.0929C134.45 34.2297 134.065 33.5944 133.296 33.1868C132.527 32.7552 131.336 32.3356 129.726 31.928C128.259 31.5444 127.057 31.1608 126.119 30.7771C125.206 30.3695 124.412 29.7821 123.739 29.0149C123.09 28.2236 122.765 27.1927 122.765 25.9219C122.765 24.9149 123.066 23.9918 123.667 23.1526C124.268 22.3134 125.121 21.6541 126.227 21.1746C127.333 20.6711 128.596 20.4193 130.014 20.4193C132.202 20.4193 133.969 20.9708 135.316 22.0737C136.662 23.1766 137.383 24.6871 137.48 26.6052H134.198C134.125 25.5742 133.705 24.7471 132.935 24.1237C132.19 23.5003 131.18 23.1886 129.906 23.1886C128.728 23.1886 127.79 23.4403 127.093 23.9438C126.396 24.4473 126.047 25.1067 126.047 25.9219C126.047 26.5693 126.251 27.1087 126.66 27.5403C127.093 27.9479 127.622 28.2836 128.247 28.5473C128.896 28.7871 129.786 29.0628 130.916 29.3745C132.334 29.7581 133.488 30.1418 134.378 30.5254C135.268 30.885 136.025 31.4365 136.65 32.1798C137.299 32.923 137.636 33.8941 137.66 35.0929C137.66 36.1718 137.359 37.1429 136.758 38.006C136.157 38.8692 135.304 39.5525 134.198 40.056C133.116 40.5355 131.865 40.7753 130.447 40.7753Z" fill="#050A15"/>
<path d="M152.102 20.3833C153.593 20.3833 154.939 20.707 156.142 21.3544C157.344 21.9778 158.281 22.9248 158.955 24.1956C159.652 25.4663 160.001 27.0128 160.001 28.835V40.4516H156.755V29.3026C156.755 27.3365 156.262 25.838 155.276 24.807C154.29 23.752 152.944 23.2245 151.237 23.2245C149.506 23.2245 148.123 23.764 147.089 24.843C146.08 25.9219 145.575 27.4924 145.575 29.5543V40.4516H142.293V13.8378H145.575V23.5482C146.224 22.5412 147.113 21.762 148.243 21.2105C149.397 20.6591 150.684 20.3833 152.102 20.3833Z" fill="#050A15"/>
<defs>
<radialGradient id="paint0_radial_298_410" cx="0" cy="0" r="1" gradientUnits="userSpaceOnUse" gradientTransform="translate(5.61421 4.51007) rotate(41.3764) scale(59.5665 59.5267)">
<stop stop-color="#070707" stop-opacity="0.82"/>
<stop offset="1" stop-opacity="0"/>
</radialGradient>
</defs>
</svg>
