<svg width="1316" height="529" viewBox="0 0 1316 529" fill="none" xmlns="http://www.w3.org/2000/svg">
<path d="M355.07 354.504H174.386V444.255H355.07V354.504Z" fill="white"/>
<path d="M355.07 84.3624H174.386V174.113H355.07V84.3624Z" fill="white"/>
<path d="M174.386 354.504V174.113H84.489V354.504H174.386Z" fill="white"/>
<path d="M444.967 354.504V264.753H355.07V354.504H444.967Z" fill="white"/>
<path fill-rule="evenodd" clip-rule="evenodd" d="M383.298 6.22788H146.142C68.8652 6.22788 6.21992 68.7715 6.21992 145.923V382.694C6.21992 459.846 68.8652 522.389 146.142 522.389H383.298C460.575 522.389 523.221 459.846 523.221 382.694V145.923C523.221 68.7715 460.575 6.22788 383.298 6.22788ZM146.142 0.308594C65.5908 0.308594 0.291016 65.5024 0.291016 145.923V382.694C0.291016 463.115 65.5908 528.309 146.142 528.309H383.298C463.85 528.309 529.15 463.115 529.15 382.694V145.923C529.15 65.5024 463.85 0.308594 383.298 0.308594H146.142Z" fill="url(#paint0_radial_116_9)"/>
<path d="M691.977 168.769C706.007 168.769 718.258 171.835 728.732 177.967C739.402 184.099 747.306 191.813 752.444 201.11V171.439H779.714V337.596C779.714 352.432 776.552 365.586 770.229 377.058C763.905 388.729 754.815 397.828 742.959 404.355C731.3 410.883 717.666 414.147 702.055 414.147C680.713 414.147 662.929 409.103 648.701 399.015C634.474 388.927 626.076 375.179 623.507 357.772H650.183C653.147 367.663 659.273 375.575 668.561 381.509C677.848 387.641 689.013 390.707 702.055 390.707C716.875 390.707 728.929 386.058 738.217 376.762C747.702 367.465 752.444 354.41 752.444 337.596V303.475C747.109 312.969 739.205 320.881 728.732 327.211C718.258 333.541 706.007 336.706 691.977 336.706C677.552 336.706 664.411 333.145 652.555 326.024C640.896 318.903 631.707 308.914 624.989 296.057C618.27 283.199 614.911 268.562 614.911 252.144C614.911 235.528 618.27 220.99 624.989 208.528C631.707 195.868 640.896 186.077 652.555 179.154C664.411 172.23 677.552 168.769 691.977 168.769ZM752.444 252.441C752.444 240.177 749.974 229.495 745.034 220.396C740.094 211.297 733.375 204.374 724.878 199.627C716.579 194.681 707.39 192.209 697.312 192.209C687.234 192.209 678.046 194.583 669.746 199.33C661.447 204.077 654.827 211 649.887 220.099C644.947 229.199 642.477 239.88 642.477 252.144C642.477 264.606 644.947 275.485 649.887 284.782C654.827 293.881 661.447 300.903 669.746 305.848C678.046 310.596 687.234 312.969 697.312 312.969C707.39 312.969 716.579 310.596 724.878 305.848C733.375 300.903 740.094 293.881 745.034 284.782C749.974 275.485 752.444 264.705 752.444 252.441Z" fill="white"/>
<path d="M896.137 336.706C880.922 336.706 867.089 333.244 854.64 326.321C842.389 319.398 832.706 309.607 825.592 296.947C818.676 284.09 815.218 269.254 815.218 252.441C815.218 235.825 818.775 221.187 825.889 208.528C833.2 195.67 843.08 185.879 855.529 179.154C867.979 172.23 881.91 168.769 897.323 168.769C912.736 168.769 926.667 172.23 939.116 179.154C951.566 185.879 961.347 195.572 968.461 208.231C975.772 220.891 979.428 235.627 979.428 252.441C979.428 269.254 975.673 284.09 968.164 296.947C960.853 309.607 950.874 319.398 938.227 326.321C925.581 333.244 911.551 336.706 896.137 336.706ZM896.137 312.969C905.82 312.969 914.91 310.694 923.407 306.145C931.904 301.595 938.721 294.771 943.859 285.672C949.194 276.573 951.862 265.496 951.862 252.441C951.862 239.386 949.293 228.308 944.155 219.209C939.018 210.11 932.299 203.385 924 199.033C915.7 194.484 906.709 192.209 897.027 192.209C887.146 192.209 878.056 194.484 869.757 199.033C861.655 203.385 855.134 210.11 850.194 219.209C845.254 228.308 842.784 239.386 842.784 252.441C842.784 265.694 845.155 276.87 849.898 285.969C854.838 295.068 861.359 301.892 869.461 306.442C877.562 310.793 886.455 312.969 896.137 312.969Z" fill="white"/>
<path d="M1072.4 336.706C1059.95 336.706 1048.78 334.629 1038.9 330.475C1029.02 326.123 1021.22 320.189 1015.49 312.673C1009.76 304.958 1006.59 296.156 1006 286.265H1033.86C1034.65 294.376 1038.41 301.002 1045.13 306.145C1052.04 311.288 1061.03 313.859 1072.1 313.859C1082.38 313.859 1090.48 311.585 1096.4 307.035C1102.33 302.486 1105.3 296.749 1105.3 289.826C1105.3 282.705 1102.14 277.463 1095.81 274.1C1089.49 270.54 1079.71 267.078 1066.47 263.716C1054.41 260.551 1044.53 257.386 1036.83 254.221C1029.32 250.858 1022.8 246.012 1017.26 239.682C1011.93 233.155 1009.26 224.649 1009.26 214.165C1009.26 205.857 1011.73 198.242 1016.67 191.319C1021.61 184.396 1028.63 178.956 1037.72 175C1046.81 170.846 1057.18 168.769 1068.84 168.769C1086.82 168.769 1101.35 173.318 1112.41 182.417C1123.48 191.517 1129.41 203.978 1130.2 219.803H1103.22C1102.63 211.297 1099.17 204.473 1092.85 199.33C1086.72 194.187 1078.42 191.615 1067.95 191.615C1058.27 191.615 1050.56 193.692 1044.83 197.846C1039.1 202 1036.23 207.44 1036.23 214.165C1036.23 219.506 1037.91 223.957 1041.27 227.517C1044.83 230.88 1049.18 233.649 1054.32 235.825C1059.65 237.803 1066.96 240.078 1076.25 242.649C1087.91 245.814 1097.39 248.979 1104.7 252.144C1112.02 255.111 1118.24 259.661 1123.38 265.793C1128.71 271.925 1131.48 279.936 1131.68 289.826C1131.68 298.727 1129.21 306.738 1124.27 313.859C1119.33 320.98 1112.31 326.618 1103.22 330.772C1094.33 334.728 1084.05 336.706 1072.4 336.706Z" fill="white"/>
<path d="M1250.38 168.472C1262.63 168.472 1273.7 171.143 1283.58 176.483C1293.46 181.626 1301.16 189.44 1306.7 199.923C1312.43 210.407 1315.29 223.165 1315.29 238.199V334.036H1288.61V242.056C1288.61 225.836 1284.56 213.473 1276.46 204.967C1268.36 196.264 1257.29 191.912 1243.26 191.912C1229.04 191.912 1217.67 196.363 1209.18 205.264C1200.88 214.165 1196.73 227.122 1196.73 244.133V334.036H1169.75V114.471H1196.73V194.583C1202.06 186.275 1209.37 179.846 1218.66 175.296C1228.15 170.747 1238.72 168.472 1250.38 168.472Z" fill="white"/>
<defs>
<radialGradient id="paint0_radial_116_9" cx="0" cy="0" r="1" gradientUnits="userSpaceOnUse" gradientTransform="translate(115.023 37.5167) rotate(19.5761) scale(969.478 616.629)">
<stop stop-color="#E8E8F5" stop-opacity="0.82"/>
<stop offset="1" stop-color="#E5E5F9" stop-opacity="0"/>
</radialGradient>
</defs>
</svg>
